<?xml version="1.0" encoding="UTF-8"?>
<svg width="32px" height="32px" viewBox="0 0 32 32" version="1.1" xmlns="http://www.w3.org/2000/svg">
    <rect width="32" height="32" rx="6" fill="#4F46E5"/>
    <path d="M16,8 C18.2091,8 20,9.79086 20,12 L20,14 L21,14 C22.1046,14 23,14.8954 23,16 L23,22 C23,23.1046 22.1046,24 21,24 L11,24 C9.89543,24 9,23.1046 9,22 L9,16 C9,14.8954 9.89543,14 11,14 L12,14 L12,12 C12,9.79086 13.7909,8 16,8 Z M16,10 C14.8954,10 14,10.8954 14,12 L14,14 L18,14 L18,12 C18,10.8954 17.1046,10 16,10 Z" fill="white"/>
</svg> 